<svg id="Logo" xmlns="http://www.w3.org/2000/svg" viewBox="0 0 135.61 28"><defs><style>.cls-1{isolation:isolate;}.cls-2{fill:#fefefe;}.cls-3,.cls-4{fill:#65e496;}.cls-4,.cls-5{fill-rule:evenodd;}.cls-5{fill:#44444f;}</style></defs><title>Logo</title><g id="BUKEE" class="cls-1"><g class="cls-1"><path class="cls-2" d="M41,3h8a22.07,22.07,0,0,1,3.54.2A5.22,5.22,0,0,1,54.7,4a5.18,5.18,0,0,1,1.53,1.68A4.52,4.52,0,0,1,56.85,8,4.74,4.74,0,0,1,54,12.35a5.31,5.31,0,0,1,2.82,1.82,4.84,4.84,0,0,1,1,3,6,6,0,0,1-.63,2.66,5.41,5.41,0,0,1-1.74,2.06,5.59,5.59,0,0,1-2.71.95c-.68.08-2.3.12-4.88.14H41Zm4.05,3.33v4.64h2.65c1.58,0,2.56,0,2.94-.07a2.65,2.65,0,0,0,1.64-.72,2.13,2.13,0,0,0,.59-1.56,2.19,2.19,0,0,0-.51-1.51,2.3,2.3,0,0,0-1.53-.71c-.4,0-1.55-.07-3.45-.07Zm0,8v5.36h3.75a18.74,18.74,0,0,0,2.77-.12,2.54,2.54,0,0,0,1.47-.8,2.44,2.44,0,0,0,.57-1.7,2.63,2.63,0,0,0-.44-1.53A2.45,2.45,0,0,0,52,14.55a13.78,13.78,0,0,0-3.59-.29Z"/><path class="cls-2" d="M61.22,3h4V13.81a22.51,22.51,0,0,0,.15,3.35,3.26,3.26,0,0,0,1.24,2,4.34,4.34,0,0,0,2.67.74,4.07,4.07,0,0,0,2.6-.7,2.81,2.81,0,0,0,1-1.73A22.29,22.29,0,0,0,73.16,14V3h4V13.48a26.85,26.85,0,0,1-.33,5.1,5.6,5.6,0,0,1-1.21,2.52,6.14,6.14,0,0,1-2.36,1.63,10.16,10.16,0,0,1-3.86.61,11.14,11.14,0,0,1-4.35-.66A6.33,6.33,0,0,1,62.75,21a5.55,5.55,0,0,1-1.13-2.23,24.49,24.49,0,0,1-.4-5.08Z"/><path class="cls-2" d="M81.53,23V3h4v8.9L93.75,3h5.44l-7.55,7.8L99.6,23H94.36l-5.51-9.41-3.28,3.35V23Z"/></g><g class="cls-1"><path class="cls-3" d="M101.69,23V3h14.86V6.35H105.74v4.44H115.8v3.38H105.74v5.45h11.2V23Z"/><path class="cls-3" d="M120.37,23V3h14.86V6.35H124.42v4.44h10.06v3.38H124.42v5.45h11.19V23Z"/></g></g><g id="logo_icon" data-name="logo icon"><path id="Rectangle_10_copy_3" data-name="Rectangle 10 copy 3" class="cls-4" d="M28,28,0,0H28Z"/><path class="cls-5" d="M28,0,0,28V0Z"/></g></svg>